<svg xmlns="http://www.w3.org/2000/svg" width="30" height="30" viewBox="0 0 20 20" fill="none" stroke="white" stroke-width="1.5" stroke-linecap="round" stroke-linejoin="round" class="cs-icon user text-white"><path d="M10.0179 8C10.9661 8 11.4402 8 11.8802 7.76629C12.1434 7.62648 12.4736 7.32023 12.6328 7.06826C12.8989 6.64708 12.9256 6.29324 12.9789 5.58557C13.0082 5.19763 13.0071 4.81594 12.9751 4.42106C12.9175 3.70801 12.8887 3.35148 12.6289 2.93726C12.4653 2.67644 12.1305 2.36765 11.8573 2.2256C11.4235 2 10.9533 2 10.0129 2V2C9.03627 2 8.54794 2 8.1082 2.23338C7.82774 2.38223 7.49696 2.6954 7.33302 2.96731C7.07596 3.39365 7.05506 3.77571 7.01326 4.53982C6.99635 4.84898 6.99567 5.15116 7.01092 5.45586C7.04931 6.22283 7.06851 6.60631 7.33198 7.03942C7.4922 7.30281 7.8169 7.61166 8.08797 7.75851C8.53371 8 9.02845 8 10.0179 8V8Z"></path><path d="M16.5 17.5L16.583 16.6152C16.7267 15.082 16.7986 14.3154 16.2254 13.2504C16.0456 12.9164 15.5292 12.2901 15.2356 12.0499C14.2994 11.2842 13.7598 11.231 12.6805 11.1245C11.9049 11.048 11.0142 11 10 11C8.98584 11 8.09511 11.048 7.31945 11.1245C6.24021 11.231 5.70059 11.2842 4.76443 12.0499C4.47077 12.2901 3.95441 12.9164 3.77462 13.2504C3.20144 14.3154 3.27331 15.082 3.41705 16.6152L3.5 17.5"></path></svg>